<?xml version="1.0" standalone="no"?>
<!DOCTYPE svg PUBLIC "-//W3C//DTD SVG 20010904//EN"
 "http://www.w3.org/TR/2001/REC-SVG-20010904/DTD/svg10.dtd">
<svg version="1.0" xmlns="http://www.w3.org/2000/svg"
 width="408.000000pt" height="612.000000pt" viewBox="0 0 408.000000 612.000000"
 preserveAspectRatio="xMidYMid meet">

<g transform="translate(0.000000,612.000000) scale(0.100000,-0.100000)"
fill="#000000" stroke="none">
<path d="M1835 4655 c-46 -19 -78 -43 -136 -102 -76 -78 -89 -103 -113 -215
-5 -22 -12 -28 -34 -28 -15 0 -64 -14 -109 -32 -80 -31 -83 -33 -99 -77 -83
-228 -175 -399 -253 -471 -47 -42 -171 -184 -171 -194 0 -2 30 -23 68 -47 37
-23 79 -55 94 -71 l26 -28 46 57 c65 84 130 134 183 144 25 5 67 24 94 44 57
41 56 29 -9 -68 -26 -39 -71 -88 -108 -118 -35 -28 -71 -63 -80 -77 -8 -15
-36 -42 -61 -61 -24 -19 -65 -62 -91 -95 -25 -34 -61 -74 -79 -89 -33 -28
-113 -175 -113 -207 0 -13 17 -21 68 -34 104 -25 205 -96 137 -96 -14 0 -23
-4 -20 -10 13 -22 13 -71 0 -76 -11 -5 -11 -12 3 -41 l17 -36 -30 -21 c-16
-12 -66 -57 -110 -100 -44 -43 -93 -88 -110 -98 l-30 -19 40 7 c36 5 204 43
295 65 60 15 62 13 43 -33 -9 -24 -22 -50 -28 -58 -7 -8 -16 -25 -19 -36 -6
-19 -3 -21 19 -16 30 5 33 -13 9 -60 -12 -23 -15 -46 -10 -83 5 -45 2 -56 -19
-85 -26 -35 -33 -56 -15 -45 6 3 10 -1 10 -11 0 -17 -78 -94 -96 -94 -5 0 -18
-6 -28 -13 -15 -11 -17 -17 -7 -35 11 -20 14 -21 34 -8 12 8 42 17 66 21 l44
7 -7 -37 c-4 -20 -39 -139 -77 -263 -39 -125 -79 -263 -90 -307 -11 -44 -51
-177 -89 -295 -38 -119 -86 -281 -108 -360 -22 -80 -72 -255 -111 -389 -39
-134 -71 -248 -71 -253 0 -4 220 -8 490 -8 l490 0 6 27 c12 54 33 128 48 173
25 72 87 340 81 350 -3 4 -2 10 3 12 11 5 81 168 84 198 4 34 38 41 38 8 0
-13 -4 -28 -9 -33 -5 -6 -26 -68 -46 -140 -63 -224 -105 -356 -151 -472 -24
-62 -44 -115 -44 -118 0 -3 104 -5 230 -5 l230 0 -5 23 c-12 53 -46 270 -60
395 -9 76 -25 195 -35 266 -10 72 -16 135 -14 140 3 6 31 31 64 55 63 45 67
54 49 94 l-11 25 -92 -57 c-132 -82 -123 -78 -107 -57 8 9 44 34 80 54 l66 37
-5 47 c-7 56 -15 67 -36 46 -15 -14 -18 -14 -35 3 -10 10 -19 25 -19 33 0 8
-5 18 -10 21 -6 4 -8 21 -5 39 6 30 5 32 -39 44 -28 7 -46 18 -46 26 0 8 -10
22 -22 31 -23 16 -23 16 -3 31 57 42 93 65 117 76 43 19 50 48 31 133 -10 47
-21 75 -29 75 -7 0 -11 6 -8 13 2 7 -2 21 -10 32 -15 20 -15 20 -16 -2 0 -13
8 -31 19 -42 10 -10 20 -30 23 -45 l5 -27 -23 22 c-17 16 -24 18 -24 8 -1 -8
-7 -3 -14 11 -8 14 -12 28 -10 32 3 4 -1 5 -9 2 -11 -4 -20 9 -33 43 -9 26
-21 53 -26 59 -4 6 -17 38 -27 70 -21 64 -22 161 -2 263 14 70 24 264 13 257
-7 -4 -8 12 -2 119 l3 40 8 -45 c4 -25 10 -126 13 -225 3 -99 6 -187 6 -195 1
-23 30 19 30 44 0 16 2 18 9 7 5 -7 6 -22 4 -32 -3 -12 0 -19 8 -19 10 0 10
-3 3 -8 -8 -5 -8 -15 -2 -32 10 -24 11 -24 18 -5 6 14 9 16 10 5 1 -8 6 3 10
25 5 22 4 44 -1 49 -12 13 -11 26 1 26 6 0 10 -7 10 -16 0 -8 5 -12 10 -9 6 4
7 12 4 18 -5 8 -4 9 4 2 6 -6 14 -53 18 -105 5 -73 12 -101 28 -124 14 -19 17
-30 9 -33 -12 -4 0 -58 18 -77 5 -6 9 -18 9 -29 0 -17 -1 -17 -16 -3 -8 9 -16
16 -18 16 -6 0 -4 -177 3 -188 11 -17 46 110 37 133 -3 9 -2 14 2 11 4 -2 16
26 26 62 10 37 23 82 29 100 9 25 8 38 -1 52 -7 11 -12 30 -13 42 0 22 -1 22
-9 3 -8 -19 -9 -19 -9 -1 -1 31 -19 6 -24 -34 -3 -19 -3 0 -1 43 3 47 1 77 -5
77 -6 0 -8 7 -5 15 4 8 1 15 -5 15 -6 0 -11 -5 -11 -11 0 -7 -14 2 -30 19 -32
34 -39 55 -15 46 11 -5 15 1 15 17 0 18 -3 20 -9 10 -6 -9 -12 3 -20 40 -6 29
-16 59 -22 66 -6 7 -9 22 -6 33 3 11 1 17 -4 14 -6 -3 -7 5 -3 20 3 14 3 34
-2 43 -9 21 -8 19 -17 66 -5 20 -12 37 -16 37 -5 0 -9 6 -8 13 0 6 -1 28 -2
47 -1 28 -4 32 -12 20 -9 -12 -9 -11 -3 5 8 22 8 34 -1 85 -8 53 -16 74 -35
91 -12 12 -16 30 -14 63 1 25 -1 44 -6 41 -4 -3 -8 5 -7 18 0 12 -3 42 -7 67
-7 44 -6 48 32 90 39 44 41 44 56 25 14 -19 15 -19 14 13 -1 18 2 35 5 39 4 3
7 -1 7 -11 0 -9 5 -14 10 -11 6 4 8 11 5 16 -4 5 -2 9 4 9 6 0 8 7 4 15 -3 9
2 22 13 30 17 12 20 11 26 -3 6 -15 7 -14 8 3 2 17 3 16 10 -5 l7 -25 10 24
c10 24 10 24 16 -8 4 -18 11 -30 16 -27 11 7 41 -37 41 -60 0 -17 11 -55 32
-115 7 -20 16 -26 41 -27 17 0 33 -6 35 -11 2 -6 8 -9 13 -5 5 3 9 -2 9 -11 0
-9 -4 -13 -10 -10 -22 14 -8 -24 15 -39 15 -10 22 -22 19 -31 -5 -11 1 -15 20
-15 14 0 26 -4 26 -9 0 -15 -31 -42 -41 -36 -5 4 -9 1 -9 -5 0 -6 -5 -8 -10
-5 -21 13 -22 -28 -1 -77 24 -57 27 -88 9 -88 -9 0 -8 -4 2 -10 13 -9 7 -14
-12 -11 -5 0 -9 -7 -10 -16 -1 -23 -3 -33 -12 -63 -3 -14 -8 -45 -9 -70 -4
-56 -25 -99 -38 -79 -5 9 -9 -19 -9 -74 0 -52 5 -95 12 -107 11 -17 18 -1 51
128 22 81 40 154 42 162 1 8 5 22 8 30 4 8 20 51 36 95 16 44 60 148 96 230
37 83 85 191 107 240 21 50 63 140 92 200 152 312 149 305 135 321 -7 8 -25
22 -41 30 -17 9 -28 23 -28 35 0 24 28 179 40 224 8 31 4 295 -5 352 -17 99
-174 348 -258 411 -161 119 -172 124 -267 136 -19 2 -52 11 -72 20 -53 23
-113 20 -183 -9z m331 -131 c38 -18 87 -71 147 -161 23 -35 59 -86 79 -115 26
-37 41 -71 49 -113 5 -33 21 -92 35 -132 49 -145 23 -238 -73 -261 -69 -17
-135 -21 -158 -9 -11 5 -37 23 -59 38 l-39 29 37 15 c44 19 47 43 5 52 -18 3
-26 9 -19 13 6 4 12 11 13 16 1 5 30 9 65 8 34 0 62 3 62 6 0 24 -73 48 -94
31 -9 -8 -28 -8 -69 0 -44 9 -57 16 -57 30 0 10 -9 23 -20 29 -11 6 -20 20
-20 31 0 11 -10 30 -23 43 -24 24 -57 99 -57 129 0 33 30 31 68 -5 51 -49 77
-53 129 -20 34 21 43 32 39 47 -4 13 3 26 20 40 31 25 25 46 -22 71 -19 10
-34 24 -34 31 0 7 -9 17 -21 23 -16 9 -29 7 -64 -10 -25 -12 -53 -20 -62 -18
-29 6 -20 61 21 123 41 61 61 68 122 39z m54 -229 c25 -14 25 -14 -16 -15 -28
0 -44 5 -48 15 -7 20 30 20 64 0z m-660 -130 c0 -8 -19 -24 -42 -36 -24 -11
-55 -35 -69 -51 -38 -45 -45 -18 -8 28 45 57 119 94 119 59z m-24 -280 c-3
-11 -19 -35 -37 -53 -25 -25 -35 -30 -45 -21 -8 6 -14 22 -14 34 0 32 34 108
67 152 l28 37 3 -64 c2 -36 1 -74 -2 -85z m14 -475 c0 -13 -7 -20 -20 -20 -23
0 -26 10 -8 28 18 18 28 15 28 -8z m780 -522 c-1 -26 -40 -98 -56 -105 -23 -8
-105 38 -102 57 4 17 100 59 136 60 12 0 22 -6 22 -12z m-617 -58 c3 -11 1
-20 -3 -20 -5 0 -11 8 -13 18 -4 13 -5 11 -6 -5 0 -13 3 -23 8 -23 5 0 7 -10
5 -22 -2 -13 -1 -17 2 -9 5 10 11 4 18 -20 8 -24 9 -39 1 -52 -7 -13 -6 -20 4
-26 8 -6 11 -16 6 -31 -4 -14 -3 -20 3 -16 16 10 21 -46 6 -69 -9 -13 -10 -25
-4 -35 15 -23 12 -34 -6 -19 -11 9 -15 25 -12 50 2 21 1 36 -3 33 -3 -2 -11
28 -18 67 -6 38 -18 89 -26 112 -19 55 -19 74 2 86 21 11 29 7 36 -19z m-48
-131 c0 -55 4 -72 17 -80 13 -7 15 -16 9 -37 -4 -15 -6 -33 -4 -40 3 -7 0 -19
-7 -26 -6 -9 -12 -66 -14 -145 -1 -72 1 -126 6 -119 4 7 8 64 8 126 0 73 4
111 10 107 6 -3 10 -1 10 4 0 6 4 11 8 11 11 0 12 -149 1 -156 -5 -3 -9 -26
-9 -52 0 -26 -5 -65 -10 -87 -8 -36 -12 -87 -10 -137 1 -12 9 -18 23 -18 14 0
18 -3 10 -8 -8 -5 -9 -13 -3 -22 14 -22 12 -34 -4 -21 -12 10 -16 6 -21 -21
-7 -31 -29 -57 -49 -58 -5 0 -3 8 5 18 23 27 43 71 36 79 -4 3 -7 1 -7 -5 0
-7 -5 -12 -11 -12 -5 0 -8 4 -5 9 3 5 0 26 -8 47 l-13 38 -17 -26 c-9 -14 -25
-29 -34 -33 -14 -5 -14 -4 0 12 18 22 48 97 48 121 -1 15 -2 15 -15 -2 -14
-19 -15 -18 -16 15 0 19 -2 60 -5 92 -2 31 -1 57 4 57 4 0 8 21 8 48 1 26 6
56 10 67 10 22 10 138 1 195 -3 19 -13 52 -22 73 -12 28 -12 37 -3 31 23 -15
39 -13 36 4 -1 9 1 23 6 30 17 27 30 -8 31 -79z m-135 -58 c0 -14 -2 -14 -10
-1 -7 11 -8 5 -3 -20 3 -19 11 -38 16 -41 5 -4 7 -11 4 -16 -3 -5 0 -31 8 -58
8 -27 13 -51 10 -53 -3 -3 -5 -1 -5 4 0 6 -7 19 -15 30 -13 18 -14 17 -15 -19
0 -22 4 -36 10 -32 5 3 4 -9 -3 -27 l-12 -33 -3 28 c-2 15 -8 27 -14 27 -5 0
-7 -7 -4 -16 6 -14 4 -15 -9 -4 -11 9 -12 15 -5 20 6 4 10 22 9 41 -1 19 2 54
6 78 5 26 4 42 -1 38 -5 -3 -10 16 -10 43 -1 47 0 48 23 37 12 -5 23 -17 23
-26z m-58 -97 c0 -58 -26 -232 -37 -242 -3 -3 -5 6 -5 20 0 13 -3 27 -6 30 -3
4 -7 31 -9 61 -2 31 -8 64 -13 73 -7 13 -6 22 4 32 16 16 18 32 4 32 -5 0 -10
5 -10 11 0 5 4 8 9 5 5 -4 12 0 15 6 3 7 3 -17 0 -53 -3 -37 -2 -74 3 -83 6
-11 10 10 11 66 3 95 9 125 24 110 5 -5 10 -36 10 -68z m297 -22 c0 -24 -1
-25 -9 -7 -12 28 -12 47 0 40 6 -3 10 -18 9 -33z m-184 -113 c12 -22 13 -34 6
-43 -6 -7 -8 -16 -4 -20 4 -4 0 -4 -9 -1 -13 5 -15 12 -7 32 11 30 11 36 1 29
-4 -2 -8 4 -8 15 0 26 3 24 21 -12z m-76 -79 c0 -8 -6 -2 -14 14 -8 15 -12 33
-8 39 7 11 20 -20 22 -53z m228 -102 c-3 -8 -6 -5 -6 6 -1 11 2 17 5 13 3 -3
4 -12 1 -19z m-10 -80 c-3 -8 -6 -5 -6 6 -1 11 2 17 5 13 3 -3 4 -12 1 -19z
m266 -368 c3 -11 1 -18 -4 -14 -5 3 -9 12 -9 20 0 20 7 17 13 -6z m-182 -277
c13 -16 12 -17 -3 -4 -10 7 -18 15 -18 17 0 8 8 3 21 -13z m-616 -172 c-21
-43 -29 -39 -8 4 9 19 18 33 21 31 2 -2 -4 -18 -13 -35z m-49 -95 c-14 -25
-31 -48 -36 -51 -5 -3 5 19 23 49 17 30 34 53 36 51 2 -2 -8 -24 -23 -49z
m523 -22 c-7 -8 -31 -24 -53 -35 -23 -11 -32 -13 -21 -5 11 9 25 19 30 24 12
10 48 31 54 32 2 0 -2 -7 -10 -16z m-104 -64 c-3 -5 -11 -10 -16 -10 -6 0 -7
5 -4 10 3 6 11 10 16 10 6 0 7 -4 4 -10z m-218 -73 c10 -13 24 -22 31 -19 6 2
12 -3 12 -12 0 -9 -7 -16 -15 -16 -9 0 -15 -9 -16 -22 l0 -23 -9 23 c-12 29
-18 28 -12 -3 5 -29 -12 -33 -46 -9 -17 12 -22 24 -20 50 3 54 44 71 75 31z
m273 -47 c-8 -5 -19 -10 -25 -10 -5 0 -3 5 5 10 8 5 20 10 25 10 6 0 3 -5 -5
-10z m14 -132 c-3 -4 -11 -5 -19 -1 -21 7 -19 12 4 10 11 0 18 -5 15 -9z m203
-190 c-3 -8 -6 -5 -6 6 -1 11 2 17 5 13 3 -3 4 -12 1 -19z m11 -42 c-8 -15 -8
-21 2 -24 9 -3 9 -6 -1 -13 -12 -8 -11 -11 1 -19 10 -6 11 -10 3 -10 -7 0 -13
-5 -13 -11 0 -5 5 -7 12 -3 7 4 8 3 4 -4 -16 -26 -26 -9 -26 46 0 45 3 59 14
59 12 0 13 -5 4 -21z m10 -150 c-1 -12 1 -26 4 -32 8 -12 4 -61 -5 -71 -4 -3
-7 -11 -7 -17 0 -6 5 -4 11 4 7 11 9 -14 7 -83 -2 -53 -1 -97 3 -97 3 0 5 -31
4 -69 -1 -46 2 -68 9 -64 6 3 5 0 -1 -7 -7 -8 -15 -11 -18 -9 -7 8 -24 243
-27 376 -3 90 -1 109 10 101 7 -6 12 -21 10 -32z"/>
<path d="M2125 4073 c4 -10 10 -26 12 -35 4 -13 16 -18 46 -18 l41 0 -34 35
c-36 38 -78 49 -65 18z"/>
<path d="M2060 4036 c0 -11 10 -16 31 -16 38 0 35 24 -4 28 -19 2 -27 -1 -27
-12z"/>
<path d="M1691 2408 c-1 -21 4 -38 9 -38 11 0 11 14 0 50 -7 22 -8 21 -9 -12z"/>
<path d="M1661 2208 c0 -14 -4 -35 -7 -45 -5 -17 -5 -17 6 0 6 10 9 30 7 45
l-4 27 -2 -27z"/>
<path d="M1640 2120 c0 -19 3 -21 12 -12 9 9 9 15 0 24 -9 9 -12 7 -12 -12z"/>
<path d="M1662 2060 c0 -14 2 -19 5 -12 2 6 2 18 0 25 -3 6 -5 1 -5 -13z"/>
<path d="M1297 1076 c-4 -10 -1 -16 7 -16 8 0 17 -6 19 -12 3 -7 6 -8 6 -2 1
5 -5 18 -12 28 -12 17 -14 17 -20 2z"/>
<path d="M696 3508 c-127 -272 -133 -282 -211 -368 -57 -63 -89 -109 -123
-180 -25 -52 -68 -129 -95 -170 -78 -117 -94 -196 -57 -277 10 -24 20 -43 22
-43 2 0 18 -4 37 -10 31 -9 32 -8 19 8 -29 34 -29 51 2 84 17 17 30 27 30 22
0 -5 4 -4 8 2 4 5 24 20 45 33 20 12 37 26 37 31 0 14 -18 21 -25 11 -3 -5
-14 -9 -24 -8 -18 1 -18 4 -7 32 8 17 21 45 30 61 15 26 16 26 10 4 -6 -23 -5
-23 20 7 15 18 56 54 92 80 40 30 67 57 71 73 3 14 10 31 16 38 21 27 -10 10
-48 -26 -49 -47 -75 -58 -75 -34 -1 10 -8 3 -20 -18 -65 -119 48 151 132 315
41 80 57 106 45 73 -12 -33 1 -19 31 35 16 28 41 65 56 80 14 15 26 31 26 34
0 3 11 19 26 35 23 28 74 119 74 133 0 8 -66 35 -85 35 -11 0 -31 -33 -59 -92z"/>
<path d="M872 2848 c5 -15 28 -23 28 -10 0 5 -7 13 -16 16 -10 4 -14 1 -12 -6z"/>
<path d="M781 2718 c-7 -35 -23 -87 -36 -116 -26 -56 -16 -63 12 -9 19 37 54
187 43 187 -4 0 -13 -28 -19 -62z"/>
<path d="M2136 2525 c4 -8 8 -15 10 -15 2 0 4 7 4 15 0 8 -4 15 -10 15 -5 0
-7 -7 -4 -15z"/>
<path d="M1840 2425 c1 -11 7 -29 15 -39 19 -26 19 -6 0 30 -12 23 -15 25 -15
9z"/>
<path d="M768 2383 c7 -3 16 -2 19 1 4 3 -2 6 -13 5 -11 0 -14 -3 -6 -6z"/>
<path d="M2991 2241 c-11 -7 -13 -31 -8 -126 4 -77 2 -150 -8 -218 -7 -56 -15
-153 -17 -216 l-3 -115 79 2 c58 1 84 5 95 17 15 15 12 15 -28 9 -32 -5 -45
-3 -52 7 -5 8 -9 97 -9 199 0 159 -3 194 -21 250 -16 51 -19 80 -15 133 3 37
5 67 4 67 -2 0 -9 -4 -17 -9z"/>
<path d="M1926 2058 c-3 -13 -1 -27 4 -32 7 -7 10 1 10 22 0 37 -5 41 -14 10z"/>
<path d="M2060 2036 c0 -21 11 -46 20 -46 10 0 0 49 -11 56 -5 3 -9 -1 -9 -10z"/>
<path d="M1951 2028 c-1 -20 14 -24 25 -6 4 6 3 8 -4 4 -5 -3 -13 0 -15 6 -3
8 -6 6 -6 -4z"/>
<path d="M1981 1994 c0 -11 3 -14 6 -6 3 7 2 16 -1 19 -3 4 -6 -2 -5 -13z"/>
<path d="M2050 1946 c0 -14 5 -28 10 -31 6 -3 10 5 10 19 0 14 -4 28 -10 31
-6 3 -10 -5 -10 -19z"/>
<path d="M1992 1935 c0 -16 2 -22 5 -12 2 9 2 23 0 30 -3 6 -5 -1 -5 -18z"/>
<path d="M2035 1891 c-3 -5 -1 -12 5 -16 5 -3 10 1 10 9 0 18 -6 21 -15 7z"/>
<path d="M1871 1794 c0 -11 3 -14 6 -6 3 7 2 16 -1 19 -3 4 -6 -2 -5 -13z"/>
<path d="M2494 1337 c0 -45 -6 -97 -12 -116 -10 -29 -10 -37 4 -52 19 -21 11
-39 -16 -39 -26 0 -35 -18 -17 -38 24 -29 28 -54 12 -78 -14 -21 -13 -24 12
-44 14 -11 38 -23 52 -27 25 -6 25 -7 -14 -24 -38 -17 -39 -17 -10 -16 36 2
65 31 65 64 0 13 -14 49 -32 80 -18 31 -26 53 -19 49 7 -4 16 -19 21 -32 15
-40 30 -27 30 25 0 84 -54 331 -72 331 -2 0 -3 -37 -4 -83z"/>
<path d="M2140 1230 c0 -5 5 -10 10 -10 6 0 10 5 10 10 0 6 -4 10 -10 10 -5 0
-10 -4 -10 -10z"/>
<path d="M2364 1209 c-3 -6 -1 -16 6 -22 10 -9 11 -9 6 1 -4 6 -2 12 3 12 6 0
11 -4 11 -10 0 -5 4 -10 10 -10 13 0 1 27 -15 34 -8 3 -17 0 -21 -5z"/>
<path d="M2190 1108 c0 -22 16 -24 24 -2 8 21 8 21 -9 21 -8 0 -15 -9 -15 -19z"/>
<path d="M2010 1054 c0 -3 5 -14 11 -25 8 -16 13 -18 25 -8 11 9 12 15 3 25
-11 14 -39 19 -39 8z"/>
<path d="M2105 1043 c-19 -5 -35 -20 -35 -35 0 -4 16 0 35 10 19 9 35 20 35
25 0 7 -4 8 -35 0z"/>
<path d="M2576 718 c-15 -22 -12 -43 5 -32 5 3 6 10 3 16 -5 7 -1 9 9 5 13 -5
27 10 27 29 0 13 -31 1 -44 -18z"/>
<path d="M2592 664 c-15 -10 -22 -24 -20 -37 4 -26 45 -48 74 -41 25 7 71 78
47 72 -5 -1 -21 4 -36 10 -36 15 -38 15 -65 -4z"/>
</g>
</svg>
